<svg viewBox="0 0 100 100" xmlns="http://www.w3.org/2000/svg" role="img" aria-label="uru">
  <g transform="translate(0 13.2275) scale(0.529101)">
    <!-- Burbuja blanca + u en negativo (fondo transparente) -->
    <path
      fill="#FFFFFF"
      fill-rule="evenodd"
      clip-rule="evenodd"
      d="M 116 30 L 122 30 L 123 31 L 125 31 L 129 35 L 129 36 L 130 37 L 130 45 L 129 46 L 129 47 L 127 49 L 127 50 L 126 50 L 125 51 L 124 51 L 123 52 L 121 52 L 119 54 L 119 77 L 118 78 L 118 79 L 117 80 L 117 81 L 116 82 L 116 83 L 112 87 L 111 87 L 110 88 L 109 88 L 108 89 L 106 89 L 105 90 L 84 90 L 74 100 L 74 91 L 73 90 L 72 90 L 71 89 L 70 89 L 69 88 L 68 88 L 67 87 L 66 87 L 62 83 L 62 82 L 60 80 L 60 78 L 59 77 L 59 51 L 60 50 L 60 48 L 62 46 L 62 45 L 66 41 L 67 41 L 69 39 L 71 39 L 72 38 L 106 38 L 107 39 L 109 37 L 109 36 L 110 35 L 110 34 L 112 32 L 113 32 L 114 31 L 115 31 Z M 77 52 L 81 52 L 82 53 L 82 71 L 83 72 L 83 74 L 86 77 L 87 77 L 88 78 L 90 78 L 91 77 L 92 77 L 95 74 L 95 72 L 96 71 L 96 53 L 97 52 L 101 52 L 102 53 L 102 55 L 103 56 L 103 70 L 102 71 L 102 76 L 101 77 L 101 78 L 99 80 L 99 81 L 98 82 L 97 82 L 95 84 L 93 84 L 92 85 L 86 85 L 85 84 L 83 84 L 81 82 L 80 82 L 78 80 L 78 79 L 77 78 L 77 77 L 76 76 L 76 72 L 75 71 L 75 56 L 76 55 L 76 53 Z"
    />
    <!-- Destello: anillo blanco + centro verde -->
    <circle cx="118" cy="38" r="8" fill="#FFFFFF"/>
    <circle cx="118" cy="38" r="5" fill="#5BAF82"/>
  </g>
</svg>
