<svg viewBox="0 0 72 72" xmlns="http://www.w3.org/2000/svg" role="img" aria-label="uru">
  <!-- Burbuja + cola + u en negativo -->
  <path
    fill="#FFFFFF"
    fill-rule="evenodd"
    clip-rule="evenodd"
    d="
      M 14 14
      H 54
      a 10 10 0 0 1 10 10
      v 28
      a 10 10 0 0 1 -10 10
      H 24
      L 16 66
      L 16 52
      a 10 10 0 0 1 -10 -10
      V 24
      a 10 10 0 0 1 10 -10
      Z
      M 25 24
      V 40
      C 25 47 31 51 37 51
      C 43 51 49 47 49 40
      V 24
      H 44
      V 39
      C 44 43 41 45 37 45
      C 33 45 30 43 30 39
      V 24
      Z
    "
  />
  <!-- Destello: anillo blanco + centro verde, centrado en la esquina superior derecha -->
  <circle cx="58" cy="18" r="11" fill="#FFFFFF"/>
  <circle cx="58" cy="18" r="7" fill="#5BAF82"/>
</svg>
